<svg width="221" height="222" viewBox="0 0 221 222" fill="none" xmlns="http://www.w3.org/2000/svg">
<g clip-path="url(#clip0_103_5)">
<path d="M88.04 122H8C2.47715 122 -2 126.477 -2 132V212C-2 217.523 2.47715 222 8 222H88.04C93.5629 222 98.04 217.523 98.04 212V132C98.04 126.477 93.5629 122 88.04 122Z" fill="#8ECAE6"/>
<path d="M117.55 121.5H218.09C218.09 148.14 207.49 173.72 188.64 192.56C169.79 211.4 144.2 222 117.55 222V121.5V121.5Z" fill="#FFB703"/>
<path d="M208.09 0H128.05C122.527 0 118.05 4.47715 118.05 10V90C118.05 95.5229 122.527 100 128.05 100H208.09C213.613 100 218.09 95.5229 218.09 90V10C218.09 4.47715 213.613 0 208.09 0Z" fill="#023047"/>
<path d="M88 0H8C2.47715 0 -2 4.47716 -2 10V90C-2 95.5229 2.47716 100 8 100H88C93.5229 100 98 95.5228 98 90V10C98 4.47715 93.5228 0 88 0Z" fill="black" fill-opacity="0.67"/>
</g>
<defs>
<clipPath id="clip0_103_5">
<rect width="220.09" height="222" fill="white"/>
</clipPath>
</defs>
</svg>
