<svg width="367" height="345" viewBox="0 0 367 345" fill="none" xmlns="http://www.w3.org/2000/svg">
<path d="M230.31 286.064C293.237 253.929 318.199 176.866 286.064 113.939C253.929 51.0124 176.866 26.0504 113.939 58.1851C51.0124 90.3199 26.0504 167.383 58.1851 230.31C90.3199 293.237 167.383 318.199 230.31 286.064Z" fill="#D3E1EA"/>
<path d="M207.258 112.309L177.232 84.3428C174.347 81.6506 169.897 81.6506 167.012 84.3428L137.123 112.309H207.258Z" fill="#4D7CA1"/>
<path d="M235.307 112.309H108.937V166.318L150.145 197.719H194.099L235.307 166.318V112.309Z" fill="white"/>
<path d="M205.088 137.638H139.156C137.645 137.638 136.409 136.402 136.409 134.891C136.409 133.38 137.645 132.144 139.156 132.144H205.088C206.599 132.144 207.835 133.38 207.835 134.891C207.835 136.402 206.599 137.638 205.088 137.638Z" fill="#4D7CA1"/>
<path d="M205.088 152.747H139.156C137.645 152.747 136.409 151.511 136.409 150C136.409 148.489 137.645 147.253 139.156 147.253H205.088C206.599 147.253 207.835 148.489 207.835 150C207.835 151.511 206.599 152.747 205.088 152.747Z" fill="#4D7CA1"/>
<path d="M205.088 167.857H139.156C137.645 167.857 136.409 166.621 136.409 165.11C136.409 163.599 137.645 162.362 139.156 162.362H205.088C206.599 162.362 207.835 163.599 207.835 165.11C207.835 166.621 206.599 167.857 205.088 167.857Z" fill="#4D7CA1"/>
<path d="M205.088 182.966H139.156C137.645 182.966 136.409 181.73 136.409 180.219C136.409 178.708 137.645 177.472 139.156 177.472H205.088C206.599 177.472 207.835 178.708 207.835 180.219C207.835 181.73 206.599 182.966 205.088 182.966Z" fill="#4D7CA1"/>
<path d="M109.212 166.566L108.937 166.318V138.435L92.454 153.764L109.212 166.566Z" fill="#4D7CA1"/>
<path d="M235.307 138.435V166.318L234.73 166.758L251.79 153.764L235.307 138.435Z" fill="#4D7CA1"/>
<path d="M92.454 241.673H92.7837H250.526H251.433H251.79L194.099 197.719H150.145L92.454 241.673Z" fill="#B3C7D7"/>
<path d="M92.454 241.673V153.764L150.145 197.719L92.454 241.673Z" fill="#80A1BC"/>
<path d="M251.79 241.673V153.764L194.099 197.719L251.79 241.673Z" fill="#80A1BC"/>
<path d="M326.018 63.6292C327.969 62.1183 366.264 31.7896 366.264 31.7896L349.452 80.0024L326.018 63.6292Z" fill="#B3C7D7"/>
<path d="M289.234 54.0141C289.234 54.0141 309.508 58.959 309.947 58.6569C310.387 58.3547 366.264 31.7896 366.264 31.7896L289.234 54.0141Z" fill="#B3C7D7"/>
<path d="M309.947 58.6843L314.92 80.7441L326.018 63.6292L366.264 31.7896L309.947 58.6843Z" fill="#80A1BC"/>
<path d="M314.92 80.7441L329.837 66.294L326.018 63.6292L314.92 80.7441Z" fill="#4D7CA1"/>
<path d="M241.433 99.6721C245.197 98.1062 251.24 97.5842 258.273 104.397C270.196 115.908 258.136 142.253 278.19 141.841C292.393 141.539 293.821 112.337 285.58 112.446C277.174 112.556 282.393 126.979 290.964 127.034C317.887 127.199 306.431 100.276 306.431 100.276C306.431 100.276 304.508 89.7823 307.805 84.5901" stroke="#506B7C" stroke-width="0.8975" stroke-linecap="round" stroke-linejoin="round"/>
<path d="M140.09 19.3723V32.6412" stroke="#80A1BC" stroke-width="1.5658" stroke-miterlimit="10" stroke-linecap="round" stroke-linejoin="round"/>
<path d="M146.738 25.993H133.442" stroke="#80A1BC" stroke-width="1.5658" stroke-miterlimit="10" stroke-linecap="round" stroke-linejoin="round"/>
<path d="M61.6857 74.3981V84.3704" stroke="#B3C7D7" stroke-width="1.1754" stroke-miterlimit="10" stroke-linecap="round" stroke-linejoin="round"/>
<path d="M66.6581 79.398H56.6859" stroke="#B3C7D7" stroke-width="1.1754" stroke-miterlimit="10" stroke-linecap="round" stroke-linejoin="round"/>
<path d="M253.933 53.7119V63.6842" stroke="#4D7CA1" stroke-width="1.1754" stroke-miterlimit="10" stroke-linecap="round" stroke-linejoin="round"/>
<path d="M258.905 58.6843H248.933" stroke="#4D7CA1" stroke-width="1.1754" stroke-miterlimit="10" stroke-linecap="round" stroke-linejoin="round"/>
<path d="M243.246 37.9432V49.3165" stroke="white" stroke-width="1.3432" stroke-miterlimit="10" stroke-linecap="round" stroke-linejoin="round"/>
<path d="M248.933 43.6298H237.559" stroke="white" stroke-width="1.3432" stroke-miterlimit="10" stroke-linecap="round" stroke-linejoin="round"/>
<path d="M55.587 55.8273C58.9553 55.8273 61.6857 53.0968 61.6857 49.7286C61.6857 46.3603 58.9553 43.6299 55.587 43.6299C52.2188 43.6299 49.4883 46.3603 49.4883 49.7286C49.4883 53.0968 52.2188 55.8273 55.587 55.8273Z" fill="#4D7CA1"/>
<path d="M220.197 19.8119C220.197 23.2184 217.423 25.993 214.016 25.993C210.61 25.993 207.835 23.2184 207.835 19.8119C207.835 16.4054 210.61 13.6308 214.016 13.6308C217.423 13.6308 220.197 16.4054 220.197 19.8119Z" fill="#B3C7D7"/>
<path d="M104.459 41.6519C106.811 41.6519 108.717 39.7454 108.717 37.3937C108.717 35.042 106.811 33.1356 104.459 33.1356C102.107 33.1356 100.201 35.042 100.201 37.3937C100.201 39.7454 102.107 41.6519 104.459 41.6519Z" fill="white"/>
</svg>
